<?xml version="1.0" encoding="iso-8859-1"?>
<!-- Generator: Adobe Illustrator 19.0.0, SVG Export Plug-In . SVG Version: 6.00 Build 0)  -->
<svg version="1.1" id="Layer_1" xmlns="http://www.w3.org/2000/svg" xmlns:xlink="http://www.w3.org/1999/xlink" x="0px" y="0px"
	 viewBox="0 0 512.617 512.617" style="enable-background:new 0 0 512.617 512.617;" xml:space="preserve">
<g>
	<g>
		<path d="M493.151,19.509c-12.8-12.4-29.2-19.2-48-19.2c-32.8,0-70,19.6-107.2,56.8c-27.2,27.2-32,69.6-12.4,102.4l-316.4,300
			c-12,12-12.4,32,0,44c5.6,5.6,13.6,8.8,22,8.8s16.4-3.2,22-9.2l304.8-313.6c12,6.4,25.6,9.6,39.2,9.6c22.4,0,43.2-8.8,58.8-24.4
			C514.351,116.309,529.151,55.109,493.151,19.509z"/>
	</g>
</g>
<g>
</g>
<g>
</g>
<g>
</g>
<g>
</g>
<g>
</g>
<g>
</g>
<g>
</g>
<g>
</g>
<g>
</g>
<g>
</g>
<g>
</g>
<g>
</g>
<g>
</g>
<g>
</g>
<g>
</g>
</svg>
