<?xml version="1.0" encoding="iso-8859-1"?>
<!-- Generator: Adobe Illustrator 16.0.0, SVG Export Plug-In . SVG Version: 6.00 Build 0)  -->
<!DOCTYPE svg PUBLIC "-//W3C//DTD SVG 1.1//EN" "http://www.w3.org/Graphics/SVG/1.1/DTD/svg11.dtd">
<svg version="1.1" id="Capa_1" xmlns="http://www.w3.org/2000/svg" xmlns:xlink="http://www.w3.org/1999/xlink" x="0px" y="0px"
	 width="467.09px" height="467.09px" viewBox="0 0 467.09 467.09" style="enable-background:new 0 0 467.09 467.09;"
	 xml:space="preserve">
<g>
	<g>
		<path d="M456.033,171.79l-153.816-50.918c-4.562,47.619-44.783,84.983-93.579,84.983c-51.844,0-94.022-42.178-94.022-94.022
			c0-16.968,6.325-33.794,16.36-47.647l-51.86-17.167L11.057,259.49l0.133,55.05l444.844-105.795V171.79z"/>
		<path d="M208.638,180.949c38.172,0,69.116-30.944,69.116-69.116c0-34.091-20.033-63.403-54.182-47.846
			c5.991-17.854,15.588-37.047,30.834-49.537L242.569,0c-20.01,16.392-31.635,41.226-38.338,62.949
			c-23.201-21.939-64.709,14.254-64.709,48.884C139.522,150.005,170.466,180.949,208.638,180.949z"/>
		<polygon points="11.194,339.431 11.194,391.771 455.895,283.129 455.893,234.136 		"/>
		<polygon points="11.194,414.749 11.194,467.09 455.895,358.447 455.893,309.454 		"/>
	</g>
</g>
<g>
</g>
<g>
</g>
<g>
</g>
<g>
</g>
<g>
</g>
<g>
</g>
<g>
</g>
<g>
</g>
<g>
</g>
<g>
</g>
<g>
</g>
<g>
</g>
<g>
</g>
<g>
</g>
<g>
</g>
</svg>
